<svg width="490" height="140" viewBox="0 0 485 140" fill="#3B82F6" xmlns="http://www.w3.org/2000/svg">
<path d="M238.913 4.14776C304.319 0.84066 363.992 4.84416 407.625 14.046C429.419 18.6421 447.384 24.5705 460.087 31.6418C472.629 38.6234 480.897 47.2193 481.415 57.4698C481.933 67.7204 474.575 77.1063 462.801 85.3174C450.876 93.6341 433.601 101.344 412.381 108.115C369.899 121.671 310.934 131.674 245.528 134.981C180.122 138.288 120.449 134.284 76.816 125.082C55.0218 120.486 37.057 114.558 24.3536 107.487C11.8116 100.505 3.54436 91.9091 3.02606 81.6585C2.50776 71.408 9.86584 62.0221 21.6396 53.811C33.565 45.4943 50.8402 37.7842 72.0596 31.0131C114.542 17.457 173.507 7.45486 238.913 4.14776Z" stroke="#2C2C2C" stroke-width="6"/>
</svg>
