<svg xmlns="http://www.w3.org/2000/svg" version="1.1" xmlns:xlink="http://www.w3.org/1999/xlink" width="200" height="200"><svg xmlns="http://www.w3.org/2000/svg" version="1.1" xmlns:xlink="http://www.w3.org/1999/xlink" width="200" height="200"><svg xmlns="http://www.w3.org/2000/svg" version="1.1" xmlns:xlink="http://www.w3.org/1999/xlink" viewBox="0 0 200 200"><rect width="200" height="200" fill="url('#gradient')"></rect><defs><linearGradient id="gradient" gradientTransform="rotate(0 0.5 0.5)"><stop offset="0%" stop-color="#d80d0d"></stop><stop offset="100%" stop-color="#d80d0d"></stop></linearGradient></defs><g><g fill="#ffffff" transform="matrix(2.7807196198234894,0,0,2.7807196198234894,18.748621861767134,118.35431097189908)" stroke="#ffffff" stroke-width="0"><path d="M9.08-7.79L3.74-5.95L9.08-4.15L9.08-1.15L0.45-4.67L0.45-7.27L9.08-10.78L9.08-7.79ZM19.13 0L16.10-5.29L14.70-3.75L14.70 0L11.27 0L11.27-14.22L14.70-14.22L14.70-7.95L15.89-9.76L18.96-14.22L23.19-14.22L18.39-7.93L23.19 0L19.13 0ZM35.40-7.60L35.40-1.76Q34.61-0.88 33.09-0.34Q31.56 0.20 29.75 0.20L29.75 0.20Q26.95 0.20 25.28-1.51Q23.61-3.22 23.50-6.27L23.50-6.27L23.49-7.50Q23.49-9.60 24.23-11.17Q24.97-12.73 26.35-13.58Q27.73-14.42 29.55-14.42L29.55-14.42Q32.21-14.42 33.68-13.21Q35.15-11.99 35.39-9.58L35.39-9.58L32.09-9.58Q31.91-10.77 31.33-11.28Q30.74-11.79 29.67-11.79L29.67-11.79Q28.38-11.79 27.68-10.69Q26.97-9.60 26.96-7.57L26.96-7.57L26.96-6.71Q26.96-4.58 27.69-3.51Q28.42-2.44 29.98-2.44L29.98-2.44Q31.32-2.44 31.97-3.04L31.97-3.04L31.97-5.24L29.59-5.24L29.59-7.60L35.40-7.60ZM48.21-14.22L43.35 1.22L41.02 1.22L45.87-14.22L48.21-14.22ZM49.40-4.13L54.72-5.98L49.40-7.78L49.40-10.77L57.99-7.26L57.99-4.66L49.40-1.14L49.40-4.13Z"></path></g></g></svg></svg><style>@media (prefers-color-scheme: light) { :root { filter: none; } }
@media (prefers-color-scheme: dark) { :root { filter: none; } }
</style></svg>